HIERARCHY
ROOT Hips
{
  OFFSET 0.000000 0.000000 0.000000
  CHANNELS 6 Xposition Yposition Zposition Xrotation Yrotation Zrotation
  JOINT Spine
  {
    OFFSET -1.605968 -23.793274 -0.756600
    CHANNELS 3 Xrotation Yrotation Zrotation
    JOINT Chest
    {
      OFFSET -1.605968 -23.793274 -0.756600
      CHANNELS 3 Xrotation Yrotation Zrotation
      JOINT Neck
      {
        OFFSET -6.288522 -17.427103 -1.717909
        CHANNELS 3 Xrotation Yrotation Zrotation
        JOINT Head
        {
          OFFSET -6.418879 2.270624 -1.669267
          CHANNELS 3 Xrotation Yrotation Zrotation
          End Site
          {
            OFFSET 0.0 5.0 2.0
          }
        }
      }
      JOINT LeftShoulder
      {
        OFFSET 4.993806 -0.965454 -8.751451
        CHANNELS 3 Xrotation Yrotation Zrotation
        JOINT LeftArm
        {
          OFFSET -0.637901 21.036452 -4.788065
          CHANNELS 3 Xrotation Yrotation Zrotation
          JOINT LeftForeArm
          {
            OFFSET -12.620728 13.003071 -2.408415
            CHANNELS 3 Xrotation Yrotation Zrotation
            JOINT LeftHand
            {
              OFFSET -3.572583 3.611593 -2.340508
              CHANNELS 3 Xrotation Yrotation Zrotation
              End Site
              {
                OFFSET -3.0 0.0 2.0
              }
            }
          }
        }
      }
      JOINT RightShoulder
      {
        OFFSET -4.993806 0.965454 8.751451
        CHANNELS 3 Xrotation Yrotation Zrotation
        JOINT RightArm
        {
          OFFSET -4.928958 22.036360 -3.025883
          CHANNELS 3 Xrotation Yrotation Zrotation
          JOINT RightForeArm
          {
            OFFSET -12.506123 12.168533 -13.661999
            CHANNELS 3 Xrotation Yrotation Zrotation
            JOINT RightHand
            {
              OFFSET 5.000000 0.000000 0.000000
              CHANNELS 3 Xrotation Yrotation Zrotation
              End Site
              {
                OFFSET 3.0 0.0 2.0
              }
            }
          }
        }
      }
    }
  }
  JOINT LeftUpLeg
  {
    OFFSET 5.454339 0.341272 -5.424501
    CHANNELS 3 Xrotation Yrotation Zrotation
    JOINT LeftLeg
    {
      OFFSET -0.590307 39.928713 2.000000
      CHANNELS 3 Xrotation Yrotation Zrotation
      JOINT LeftFoot
      {
        OFFSET 8.025014 35.612765 7.026376
        CHANNELS 3 Xrotation Yrotation Zrotation
        JOINT LeftToeBase
        {
          OFFSET -2.284864 5.638587 -11.032027
          CHANNELS 3 Xrotation Yrotation Zrotation
          End Site
          {
            OFFSET 0.0 -1.0 3.0
          }
        }
      }
    }
  }
  JOINT RightUpLeg
  {
    OFFSET -5.454339 -0.341272 5.424501
    CHANNELS 3 Xrotation Yrotation Zrotation
    JOINT RightLeg
    {
      OFFSET -1.968025 39.300493 2.000000
      CHANNELS 3 Xrotation Yrotation Zrotation
      JOINT RightFoot
      {
        OFFSET 6.495313 37.662619 6.668724
        CHANNELS 3 Xrotation Yrotation Zrotation
        JOINT RightToeBase
        {
          OFFSET -6.948810 7.036144 -9.344696
          CHANNELS 3 Xrotation Yrotation Zrotation
          End Site
          {
            OFFSET 0.0 -1.0 3.0
          }
        }
      }
    }
  }
}
MOTION
Frames: 7
Frame Time: 0.066667
0.000000 0.000000 0.000000 0.000000 0.000000 0.000000 0.000000 0.000000 0.000000 0.000000 0.000000 0.000000 0.000000 0.000000 0.000000 0.000000 0.000000 0.000000 0.000000 0.000000 0.000000 0.000000 0.000000 0.000000 0.000000 0.000000 0.000000 0.000000 0.000000 0.000000 0.000000 0.000000 0.000000 0.000000 0.000000 0.000000 70.894977 42.032842 123.291713 0.000000 0.000000 0.000000 -3.863003 -0.057067 0.001925 0.000000 0.000000 0.000000 124.244815 18.519342 34.259467 0.000000 0.000000 0.000000 -0.282457 -0.014144 0.000035 0.000000 0.000000 0.000000 85.447797 44.551698 41.445179 0.000000 0.000000 0.000000
0.000000 0.000000 0.000000 4.927005 26.770823 6.338429 2.375500 -0.195532 0.665586 -162.266344 72.609308 -170.364361 54.926615 57.859541 55.278808 0.000000 0.000000 0.000000 7.150216 3.726151 21.454662 20.709023 22.540774 -17.089424 19.046418 10.561159 -18.540846 0.000000 0.000000 0.000000 7.257858 -0.610061 -29.197784 22.312355 17.512580 -2.173043 7.686410 3.766695 127.837689 0.000000 0.000000 0.000000 -5.934350 -0.087937 -0.201173 -1.451058 -0.601404 5.001235 117.700337 19.349006 25.108621 0.000000 0.000000 0.000000 -1.063488 -0.012594 -0.977233 -1.791852 0.153176 0.964320 85.991947 44.609946 30.745541 0.000000 0.000000 0.000000
0.000000 0.000000 0.000000 1.535337 -15.885918 0.376962 7.722983 -0.528552 0.053759 -3.997504 -21.154714 0.927848 -37.404814 -50.842730 27.878894 0.000000 0.000000 0.000000 23.678740 0.970474 16.163450 18.857628 17.615930 1.280032 14.522134 11.264588 -5.216446 0.000000 0.000000 0.000000 13.451671 2.892488 -6.017523 23.051298 2.626140 -22.909617 8.493662 9.431292 83.986944 0.000000 0.000000 0.000000 -6.092210 -0.070549 6.187994 -1.150006 -0.263628 2.786210 119.197951 19.729794 38.327483 0.000000 0.000000 0.000000 -1.590370 0.006186 -2.318723 -0.346534 -0.657130 4.096147 95.563857 46.061925 23.932059 0.000000 0.000000 0.000000
0.000000 0.000000 0.000000 1.357950 -26.865153 -0.896676 9.203056 -0.829248 1.814347 -5.845368 -45.418743 5.819218 -42.739804 -60.145695 28.182751 0.000000 0.000000 0.000000 10.623646 -1.589225 -14.334148 -19.031955 -16.505589 5.140990 -6.548519 -0.750231 8.082817 0.000000 0.000000 0.000000 7.890611 1.653700 -1.508601 6.204687 -21.258465 -22.839324 10.797652 39.207509 29.722131 0.000000 0.000000 0.000000 -6.516094 -0.074435 3.182515 2.783203 -1.256360 2.780351 121.495650 18.218107 -3.311427 0.000000 0.000000 0.000000 -4.260636 -0.249527 2.690044 3.876868 -1.122743 2.103195 90.252183 45.567439 14.532799 0.000000 0.000000 0.000000
0.000000 0.000000 0.000000 1.336002 -28.150612 -1.069507 9.222997 -1.099066 4.174851 -5.126192 -44.686104 5.750422 -47.621435 -65.314980 30.490256 0.000000 0.000000 0.000000 2.779911 -2.482743 -12.601630 -25.236803 -21.687235 6.478456 -11.043100 -4.560872 8.503965 0.000000 0.000000 0.000000 7.053048 1.385929 -2.491407 -4.146087 -17.239317 -9.411695 32.466146 62.559491 51.211581 0.000000 0.000000 0.000000 -7.533620 -0.073358 2.407134 5.041781 -2.142564 4.019488 119.581448 18.052203 -2.180134 0.000000 0.000000 0.000000 -7.972157 -0.193000 10.889221 7.977070 -1.507772 0.446827 88.889721 45.153965 20.117459 0.000000 0.000000 0.000000
0.000000 0.000000 0.000000 1.120454 -21.821693 -0.594671 8.917133 -0.990956 3.491487 -2.729504 -37.025095 4.449203 -29.075017 -54.071983 14.962345 0.000000 0.000000 0.000000 -6.018541 -0.762621 -2.035722 -21.915840 -17.428856 8.701836 -11.218511 -3.585722 9.977305 0.000000 0.000000 0.000000 5.563808 0.640891 -6.854498 3.258797 -31.209067 -25.885095 29.053617 57.196348 50.842541 0.000000 0.000000 0.000000 -11.481297 0.363206 10.592995 4.211053 -1.365664 1.716753 117.441482 18.717835 13.380687 0.000000 0.000000 0.000000 -8.823851 -0.068266 14.158616 6.776404 -1.702539 2.155196 84.160482 44.353713 23.522862 0.000000 0.000000 0.000000
0.000000 0.000000 0.000000 1.087442 -19.394666 -0.391912 7.416903 -0.885585 3.935832 -2.212976 -33.594189 3.900053 -20.081182 -41.479811 9.867554 0.000000 0.000000 0.000000 -3.412939 -0.971957 -3.344058 -18.536791 -17.084064 2.951218 -11.413797 -6.624912 6.358294 0.000000 0.000000 0.000000 13.299289 2.713692 -14.850463 8.379710 -21.811280 -25.633657 40.352262 49.555859 77.043200 0.000000 0.000000 0.000000 -12.093993 0.352251 9.540562 3.193778 -1.086395 1.586148 118.067810 18.937733 18.031816 0.000000 0.000000 0.000000 -9.740927 0.077583 16.420226 5.895939 -1.379240 1.513170 82.433003 44.021642 20.247381 0.000000 0.000000 0.000000
